<svg width="70" height="70" viewBox="0 0 70 70" fill="none" xmlns="http://www.w3.org/2000/svg">
<circle cx="35" cy="35" r="35" fill="#57F287"/>
<path d="M59.85 17.2C59.4 15.875 58.125 15 56.7 15C56.625 15 56.55 15 56.475 15H54L53.225 12.575C52.875 11.075 51.525 10 50 10C48.475 10 47.125 11.075 46.775 12.6L46 15H43.55C43.475 15 43.4 15 43.325 15C41.9 15 40.625 15.875 40.175 17.2C39.7 18.6 40.275 20.125 41.575 20.9L43.75 22.2L42.75 25.3C42.175 26.75 42.65 28.425 43.875 29.35C44.45 29.775 45.15 30 45.825 30C46.6 30 47.35 29.725 47.975 29.2L50 27.45L52.025 29.2C52.65 29.725 53.4 30 54.175 30C54.85 30 55.55 29.775 56.125 29.35C57.375 28.425 57.825 26.75 57.25 25.3L56.275 22.2L58.45 20.9C59.725 20.125 60.3 18.6 59.85 17.2ZM50 22.5C48.625 22.5 47.5 21.375 47.5 20C47.5 18.625 48.625 17.5 50 17.5C51.375 17.5 52.5 18.625 52.5 20C52.5 21.375 51.375 22.5 50 22.5Z" fill="#5865F2"/>
<path d="M38.7251 31.275C37.6501 30.2 36.3751 29.45 35.0001 28.95V25H32.5001V28.45C32.2251 28.425 31.9251 28.375 31.6501 28.375C29.1001 28.375 26.5251 29.35 24.5751 31.3C24.2751 31.6 23.8251 32.05 23.3251 32.55L20.0001 31.3C16.1001 29.925 11.8001 31.975 10.4251 35.85C9.75006 37.725 9.85006 39.775 10.7251 41.575C11.3001 42.775 12.1751 43.75 13.2251 44.475C12.2751 47.85 13.0751 51.6 15.7251 54.25C17.6751 56.2 20.2251 57.175 22.8001 57.175C23.7251 57.175 24.6251 57 25.5251 56.75C26.2501 57.8 27.2251 58.675 28.4251 59.25C29.4501 59.75 30.5251 60 31.6251 60C32.4751 60 33.3251 59.85 34.1501 59.575C38.0501 58.2 40.1001 53.9 38.7001 49.95L37.4751 46.7C37.9751 46.2 38.4251 45.75 38.7251 45.45C40.9001 43.275 41.8251 40.35 41.5751 37.525H45.0001V35.025H41.0251C40.5501 33.65 39.8001 32.375 38.7251 31.275ZM23.9501 52.05C23.5751 52.15 23.2001 52.2 22.8001 52.2C21.4751 52.2 20.2001 51.675 19.2751 50.725C18.3251 49.775 17.8001 48.525 17.8001 47.2C17.8001 46.8 17.8751 46.4 17.9501 46.025C18.3001 46.05 18.6501 46.1 19.0001 46.1C21.1251 46.1 23.2001 45.6 25.1001 44.9C24.3001 47.125 23.7501 49.575 23.9501 52.05ZM16.6751 40.725C16.0501 40.5 15.5501 40.05 15.2501 39.45C14.9501 38.85 14.9251 38.175 15.1501 37.55C15.6251 36.25 17.0501 35.575 18.3001 36.025L26.2001 39C23.3251 40.5 19.6251 41.775 16.6751 40.725ZM32.4751 54.85C31.8501 55.075 31.1751 55.05 30.5751 54.75C29.9751 54.475 29.5251 53.95 29.3001 53.325C28.2501 50.375 29.5251 46.7 31.0501 43.825L34.0001 51.65C34.4501 52.95 33.7751 54.4 32.4751 54.85ZM35.5001 41.5L33.9751 37.475C33.9751 37.45 33.9501 37.425 33.9251 37.4C33.8751 37.3 33.8251 37.2 33.7751 37.1C33.7251 37 33.6751 36.925 33.6001 36.825C33.5251 36.75 33.4501 36.675 33.3751 36.6C33.3001 36.525 33.2251 36.45 33.1501 36.375C33.0751 36.3 32.9751 36.25 32.8751 36.2C32.7751 36.15 32.7001 36.075 32.5751 36.05C32.5501 36.05 32.5251 36.025 32.5001 36L28.5001 34.5C29.4001 33.775 30.4751 33.35 31.6501 33.35C32.9751 33.35 34.2501 33.875 35.1751 34.825C37.0001 36.65 37.1001 39.525 35.5001 41.5Z" fill="#5865F2"/>
</svg>
