<svg width="106.666666667" height="40" viewBox="0 0 160 60" fill="none" xmlns="http://www.w3.org/2000/svg">
<path d="M82.6016 20.6836H98.9844V23.9414H86.3164V28.7344H97.0742V31.793H86.3164V39H82.6016V20.6836ZM102.23 19.5586H105.699V39H102.23V19.5586ZM109.32 32.0859C109.32 31.0938 109.52 30.1641 109.918 29.2969C110.324 28.4297 110.898 27.6719 111.641 27.0234C112.391 26.375 113.293 25.8633 114.348 25.4883C115.41 25.1133 116.602 24.9258 117.922 24.9258C119.242 24.9258 120.43 25.1133 121.484 25.4883C122.547 25.8633 123.449 26.375 124.191 27.0234C124.941 27.6719 125.516 28.4297 125.914 29.2969C126.32 30.1641 126.523 31.0938 126.523 32.0859C126.523 33.0781 126.32 34.0078 125.914 34.875C125.516 35.7422 124.941 36.5 124.191 37.1484C123.449 37.7969 122.547 38.3086 121.484 38.6836C120.43 39.0586 119.242 39.2461 117.922 39.2461C116.602 39.2461 115.41 39.0586 114.348 38.6836C113.293 38.3086 112.391 37.7969 111.641 37.1484C110.898 36.5 110.324 35.7422 109.918 34.875C109.52 34.0078 109.32 33.0781 109.32 32.0859ZM112.965 32.0859C112.965 32.6406 113.074 33.168 113.293 33.668C113.52 34.1602 113.844 34.5977 114.266 34.9805C114.695 35.3555 115.215 35.6562 115.824 35.8828C116.441 36.1016 117.141 36.2109 117.922 36.2109C118.703 36.2109 119.398 36.1016 120.008 35.8828C120.625 35.6562 121.145 35.3555 121.566 34.9805C121.996 34.5977 122.32 34.1602 122.539 33.668C122.766 33.168 122.879 32.6406 122.879 32.0859C122.879 31.5312 122.766 31.0039 122.539 30.5039C122.32 30.0039 121.996 29.5664 121.566 29.1914C121.145 28.8086 120.625 28.5078 120.008 28.2891C119.398 28.0625 118.703 27.9492 117.922 27.9492C117.141 27.9492 116.441 28.0625 115.824 28.2891C115.215 28.5078 114.695 28.8086 114.266 29.1914C113.844 29.5664 113.52 30.0039 113.293 30.5039C113.074 31.0039 112.965 31.5312 112.965 32.0859ZM130.027 25.1719H133.496V27.1641C134.262 26.5938 135.07 26.1016 135.922 25.6875C136.773 25.2734 137.621 24.957 138.465 24.7383L139.484 27.9141C138.148 28.0469 136.973 28.3477 135.957 28.8164C134.949 29.2773 134.129 29.9297 133.496 30.7734V39H130.027V25.1719ZM141.418 34.6406C141.418 33.9766 141.562 33.3711 141.852 32.8242C142.141 32.2773 142.574 31.8086 143.152 31.418C143.73 31.0195 144.449 30.7148 145.309 30.5039C146.176 30.2852 147.184 30.1758 148.332 30.1758C149.184 30.1758 150.078 30.2383 151.016 30.3633C151.961 30.4883 152.934 30.6797 153.934 30.9375C153.895 30.5 153.762 30.0977 153.535 29.7305C153.309 29.3555 152.992 29.0352 152.586 28.7695C152.188 28.4961 151.703 28.2852 151.133 28.1367C150.57 27.9883 149.93 27.9141 149.211 27.9141C148.82 27.9141 148.391 27.9375 147.922 27.9844C147.453 28.0312 146.969 28.1016 146.469 28.1953C145.969 28.2891 145.473 28.4062 144.98 28.5469C144.496 28.6875 144.043 28.8555 143.621 29.0508L142.566 26.2031C143.09 26.0156 143.648 25.8438 144.242 25.6875C144.844 25.5312 145.457 25.3984 146.082 25.2891C146.707 25.1719 147.332 25.082 147.957 25.0195C148.582 24.957 149.188 24.9258 149.773 24.9258C152.359 24.9258 154.281 25.5859 155.539 26.9062C156.797 28.2266 157.426 30.25 157.426 32.9766V39H153.957V37.6992C153.598 37.9102 153.203 38.1094 152.773 38.2969C152.352 38.4844 151.891 38.6484 151.391 38.7891C150.891 38.9297 150.352 39.0391 149.773 39.1172C149.203 39.2031 148.598 39.2461 147.957 39.2461C146.879 39.2461 145.93 39.1289 145.109 38.8945C144.297 38.6602 143.617 38.3359 143.07 37.9219C142.523 37.5078 142.109 37.0234 141.828 36.4688C141.555 35.9062 141.418 35.2969 141.418 34.6406ZM145.074 34.5234C145.074 34.75 145.133 34.9688 145.25 35.1797C145.367 35.3828 145.555 35.5664 145.812 35.7305C146.07 35.8867 146.398 36.0156 146.797 36.1172C147.203 36.2109 147.691 36.2578 148.262 36.2578C148.871 36.2578 149.461 36.2031 150.031 36.0938C150.602 35.9844 151.133 35.8398 151.625 35.6602C152.117 35.4805 152.562 35.2734 152.961 35.0391C153.359 34.8047 153.691 34.5625 153.957 34.3125V33.7031C153.426 33.5547 152.898 33.4297 152.375 33.3281C151.859 33.2266 151.363 33.1484 150.887 33.0938C150.418 33.0312 149.973 32.9883 149.551 32.9648C149.137 32.9414 148.773 32.9297 148.461 32.9297C147.812 32.9297 147.273 32.9727 146.844 33.0586C146.414 33.1445 146.066 33.2617 145.801 33.4102C145.535 33.5508 145.348 33.7188 145.238 33.9141C145.129 34.1094 145.074 34.3125 145.074 34.5234Z" fill="black" fill-opacity="0.7"/>
<path d="M54.85 12.2C54.4 10.875 53.125 10 51.7 10C51.625 10 51.55 10 51.475 10H49L48.225 7.575C47.875 6.075 46.525 5 45 5C43.475 5 42.125 6.075 41.775 7.6L41 10H38.55C38.475 10 38.4 10 38.325 10C36.9 10 35.625 10.875 35.175 12.2C34.7 13.6 35.275 15.125 36.575 15.9L38.75 17.2L37.75 20.3C37.175 21.75 37.65 23.425 38.875 24.35C39.45 24.775 40.15 25 40.825 25C41.6 25 42.35 24.725 42.975 24.2L45 22.45L47.025 24.2C47.65 24.725 48.4 25 49.175 25C49.85 25 50.55 24.775 51.125 24.35C52.375 23.425 52.825 21.75 52.25 20.3L51.275 17.2L53.45 15.9C54.725 15.125 55.3 13.6 54.85 12.2ZM45 17.5C43.625 17.5 42.5 16.375 42.5 15C42.5 13.625 43.625 12.5 45 12.5C46.375 12.5 47.5 13.625 47.5 15C47.5 16.375 46.375 17.5 45 17.5Z" fill="#5865F2"/>
<path d="M33.725 26.275C32.65 25.2 31.375 24.45 30 23.95V20H27.5V23.45C27.225 23.425 26.925 23.375 26.65 23.375C24.1 23.375 21.525 24.35 19.575 26.3C19.275 26.6 18.825 27.05 18.325 27.55L15 26.3C11.1 24.925 6.8 26.975 5.425 30.85C4.75 32.725 4.85 34.775 5.725 36.575C6.3 37.775 7.175 38.75 8.225 39.475C7.275 42.85 8.075 46.6 10.725 49.25C12.675 51.2 15.225 52.175 17.8 52.175C18.725 52.175 19.625 52 20.525 51.75C21.25 52.8 22.225 53.675 23.425 54.25C24.45 54.75 25.525 55 26.625 55C27.475 55 28.325 54.85 29.15 54.575C33.05 53.2 35.1 48.9 33.7 44.95L32.475 41.7C32.975 41.2 33.425 40.75 33.725 40.45C35.9 38.275 36.825 35.35 36.575 32.525H40V30.025H36.025C35.55 28.65 34.8 27.375 33.725 26.275ZM18.95 47.05C18.575 47.15 18.2 47.2 17.8 47.2C16.475 47.2 15.2 46.675 14.275 45.725C13.325 44.775 12.8 43.525 12.8 42.2C12.8 41.8 12.875 41.4 12.95 41.025C13.3 41.05 13.65 41.1 14 41.1C16.125 41.1 18.2 40.6 20.1 39.9C19.3 42.125 18.75 44.575 18.95 47.05ZM11.675 35.725C11.05 35.5 10.55 35.05 10.25 34.45C9.95 33.85 9.925 33.175 10.15 32.55C10.625 31.25 12.05 30.575 13.3 31.025L21.2 34C18.325 35.5 14.625 36.775 11.675 35.725ZM27.475 49.85C26.85 50.075 26.175 50.05 25.575 49.75C24.975 49.475 24.525 48.95 24.3 48.325C23.25 45.375 24.525 41.7 26.05 38.825L29 46.65C29.45 47.95 28.775 49.4 27.475 49.85ZM30.5 36.5L28.975 32.475C28.975 32.45 28.95 32.425 28.925 32.4C28.875 32.3 28.825 32.2 28.775 32.1C28.725 32 28.675 31.925 28.6 31.825C28.525 31.75 28.45 31.675 28.375 31.6C28.3 31.525 28.225 31.45 28.15 31.375C28.075 31.3 27.975 31.25 27.875 31.2C27.775 31.15 27.7 31.075 27.575 31.05C27.55 31.05 27.525 31.025 27.5 31L23.5 29.5C24.4 28.775 25.475 28.35 26.65 28.35C27.975 28.35 29.25 28.875 30.175 29.825C32 31.65 32.1 34.525 30.5 36.5Z" fill="#5865F2"/>
</svg>