<?xml version="1.0" encoding="utf-8"?>
<!-- Generator: Adobe Illustrator 25.0.1, SVG Export Plug-In . SVG Version: 6.00 Build 0)  -->
<svg version="1.1" id="Layer_1" xmlns="http://www.w3.org/2000/svg" xmlns:xlink="http://www.w3.org/1999/xlink" x="0px" y="0px"
	 viewBox="0 0 233.5 51.4" style="enable-background:new 0 0 233.5 51.4;" xml:space="preserve">
<path d="M217.1,28.9V18.5c0-0.8-0.7-1-1.5-1.2c-1.4-0.4-2.9-0.7-4.4-0.6c-1,0-2,0.1-3,0.3c-2.8,0.4-5.2,2.5-5.8,5.3
	c-0.6,2.4-0.6,4.9,0.1,7.3c0.6,2.3,2.4,4.2,4.7,4.8c0.7,0.2,1.5,0.4,2.3,0.4c0.4,0,0.9,0,1.5,0c0.7,0,1.3-0.1,2-0.2
	c0.7-0.2,1.1-0.5,1.1,0c0,1.4-1.4,3.2-5,2.9c-0.7-0.1-1,0-1,0.5v1.7c0,0.5,0.4,0.6,1,0.6c4.7,0.5,8.2-2.9,8.2-6.7V28.9z M214,31
	c0,0.7-0.1,1-0.8,1.2c-0.8,0.2-1.7,0.3-2.6,0.3c-0.4,0-0.8,0-1.1-0.1c-1.6-0.3-3-1.4-3.6-2.9c-0.7-1.7-0.9-3.7-0.6-5.5
	c0.1-0.5,0.2-1,0.4-1.4c0.6-1.9,2.4-3.2,4.4-3.3c1-0.1,1.9,0,2.9,0.2c0.6,0.1,1,0.3,1,0.8L214,31L214,31z"/>
<path d="M164.5,29.2c-0.1-1.4-0.9-2.7-2.1-3.5c-0.6-0.4-1.3-0.7-2-0.9c-1.5-0.3-2.9-0.7-4.3-1.3c-0.5-0.3-0.7-0.8-0.8-1.4
	c-0.1-1.1,0.6-2.1,1.7-2.4c1-0.2,2-0.2,3,0.2c1.2,0.4,1.9,0.8,2.4,0.9c0.3,0.1,0.6,0.1,0.7-0.3c0.1-0.2,0.5-1.4,0.6-1.6
	c0.1-0.4,0-0.5-0.4-0.7c-1.6-0.8-3.3-1.2-5.1-1.2c-0.4,0-0.9,0-1.3,0.1c-1.2,0.2-2.3,0.8-3.1,1.6c-1.5,1.7-1.6,4.2-0.4,6.1
	c0.7,0.8,1.6,1.5,2.6,1.8c1.6,0.5,3.7,0.7,4.4,1.2c0.9,0.4,1.4,1.4,1.1,2.3c-0.1,0.6-0.5,1.1-1.1,1.3c-0.4,0.2-0.7,0.3-1.1,0.4
	c-0.4,0.1-0.8,0.1-1.2,0.1c-0.9,0-1.7-0.2-2.5-0.4c-0.4-0.1-2.1-0.7-2.3-0.8c-0.4-0.1-0.5,0.1-0.6,0.4l-0.5,1.7
	c-0.1,0.4,0,0.5,0.7,0.8c1.6,0.7,3.3,1,5.1,1.1c1,0,2.1-0.1,3.1-0.4c1.4-0.3,2.5-1.2,3-2.5C164.4,31.1,164.6,30.2,164.5,29.2z"/>
<path d="M74.6,12.3h2.1c0.3,0,0.5,0.2,0.5,0.5V15c0,0.3-0.2,0.5-0.5,0.5h-2.1c-0.3,0-0.5-0.2-0.5-0.5v-2.1
	C74.1,12.5,74.3,12.3,74.6,12.3z"/>
<path d="M74.6,18h2.1c0.3,0,0.5,0.2,0.5,0.5v15.5c0,0.3-0.2,0.5-0.5,0.5h-2.1c-0.3,0-0.5-0.2-0.5-0.5V18.5
	C74.1,18.2,74.3,18,74.6,18z"/>
<path d="M178.6,12.3h2.1c0.3,0,0.5,0.2,0.5,0.5V15c0,0.3-0.2,0.5-0.5,0.5h-2.1c-0.3,0-0.5-0.2-0.5-0.5v-2.1
	C178.1,12.5,178.4,12.3,178.6,12.3z"/>
<path d="M178.6,18h2.1c0.3,0,0.5,0.2,0.5,0.5V34c0,0.3-0.2,0.5-0.5,0.5h-2.1c-0.3,0-0.5-0.2-0.5-0.5V18.5
	C178.1,18.2,178.4,18,178.6,18z"/>
<path d="M141.9,17.4c-4.5,0-8.1,3-8.1,8.7s3.6,8.6,8.1,8.6s8.1-2.8,8.1-8.6C150.1,20.6,146.5,17.4,141.9,17.4z M141.9,32.4
	c-2.8,0-4.8-2.6-4.8-6.3c0-3.9,1.9-6.3,4.8-6.3s4.8,2.4,4.8,6.3C146.7,30.2,144.8,32.4,141.9,32.4L141.9,32.4z"/>
<path d="M131.5,26.6c0-0.9-0.1-1.7-0.2-2.6c-0.2-3.3-2.8-6-6.2-6.4c-0.9-0.1-1.8-0.2-2.6-0.2c-0.9,0-1.8,0.1-2.7,0.2
	c-0.1,0-0.2-0.1-0.2-0.2c0,0,0,0,0,0v-4.6c0-0.3-0.2-0.5-0.5-0.5H117c-0.3,0-0.5,0.2-0.5,0.5v21.2c0,0.3,0.2,0.5,0.5,0.5h2.1
	c0.3,0,0.5-0.2,0.5-0.5v-13c0-0.6,0.2-0.7,0.6-0.8c0.9-0.1,1.7-0.2,2.6-0.2c0.6,0,1.2,0,1.7,0.1c1.6,0.5,2.8,1.7,3.2,3.3
	c0.3,1,0.5,2,0.4,3.1c0,1.6,0,7.6,0,7.6c0,0.3,0.2,0.5,0.5,0.5h2.2c0.3,0,0.5-0.2,0.5-0.5L131.5,26.6z"/>
<path d="M170.9,20.9h4.2c0.3,0,0.5-0.2,0.5-0.5v-1.9c0-0.3-0.2-0.5-0.5-0.5h-4.2c-0.3,0-0.5-0.2-0.5-0.5v-4.6c0-0.3-0.2-0.5-0.5-0.5
	h-2.1c-0.3,0-0.5,0.2-0.5,0.5V24c0,3.8-0.5,10.6,6.9,10.6h1.1c0.3,0,0.5-0.2,0.5-0.5v-2c0-0.3-0.2-0.5-0.5-0.5h-1.1
	c-3.9,0-3.7-2.9-3.7-6.8v-3.3C170.4,21.2,170.6,20.9,170.9,20.9C170.9,20.9,170.9,20.9,170.9,20.9z"/>
<path d="M84.4,29.7"/>
<path d="M96.3,26.3c0-0.9-0.1-1.7-0.2-2.6c-0.5-3.6-2.6-5.6-6.2-6.2c-0.9-0.1-1.8-0.2-2.6-0.2c-1.8,0-3.5,0.3-5.2,0.7
	c-0.7,0.2-0.8,0.4-0.8,1.1V34c0,0.3,0.2,0.5,0.5,0.5h2.1c0.3,0,0.5-0.2,0.5-0.5V20.8c0-0.6,0.1-0.7,0.7-0.8c0.8-0.2,1.6-0.2,2.5-0.2
	c0.6,0,1.2,0,1.8,0.1c1.6,0.4,2.8,1.6,3.3,3.1c0.3,1,0.5,2.1,0.4,3.1c0,1.6,0,6,0,6v2c0,0.3,0.2,0.5,0.5,0.5h2.1
	c0.3,0,0.5-0.2,0.5-0.5L96.3,26.3L96.3,26.3z"/>
<path d="M69.5,12.3h-1.8c-0.4,0-0.7,0.3-0.7,0.7c0,0,0,0,0,0v4.9c0,0.1-0.1,0.2-0.2,0.2c0,0,0,0-0.1,0c-1.3-0.3-2.6-0.4-3.9-0.4
	c-4.4,0-7.9,2.9-7.9,8.6s3.5,8.6,8.3,8.6c1.3,0,2.6-0.1,3.9-0.3c0.8-0.1,1.6-0.3,2.3-0.6c0.3-0.2,0.7-0.4,0.7-0.8V13
	C70.2,12.6,69.9,12.3,69.5,12.3C69.5,12.3,69.5,12.3,69.5,12.3z M63.4,32.4c-1.5,0.1-2.9-0.5-3.8-1.6c-1-1.3-1.6-2.9-1.5-4.6
	c0-2.2,0.6-3.8,1.7-4.8c0.9-0.9,2.1-1.4,3.4-1.4c3.1,0,3.7,0.8,3.7,1.4V31C67,32.1,66.5,32.4,63.4,32.4z"/>
<path d="M113.2,24.1c0-3.5-1.7-5.5-4-6.3c-0.7-0.2-1.4-0.4-2.2-0.5c-0.6-0.1-1.2-0.1-1.7-0.1c-0.6,0-1.3,0.1-1.9,0.1
	c-0.7,0.1-1.4,0.3-2.1,0.5c-0.4,0.1-0.9,0.3-1.1,0.4c-0.1,0-0.2,0.2-0.2,0.3c0.1,0.3,0.5,1.5,0.6,2c0.1,0.1,0.2,0.1,0.3,0.1l0.9-0.3
	c1.2-0.4,2.5-0.6,3.8-0.6h0.8c0.7,0,1.5,0.2,2.1,0.6c1.2,0.6,1.8,1.9,1.7,3.3c0,0.2-0.1,0.3-0.3,0.3c0,0-0.1,0-0.1,0
	c-0.9-0.2-1.8-0.3-2.8-0.3c-5.5,0-8.2,2.5-8.2,5.6s3,5.7,8.7,5.7c1.9,0.1,3.8-0.3,5.5-1c0.2-0.1,0.3-0.3,0.3-0.5L113.2,24.1
	L113.2,24.1z M110.1,31.8c0,0.3-0.2,0.5-0.4,0.5c-0.3,0.1-0.6,0.2-0.9,0.2c-0.7,0.1-1.5,0.2-2.2,0.2c-0.7,0-1.5-0.1-2.2-0.3
	c-0.7-0.1-1.4-0.5-1.9-1.1c-0.5-0.6-0.7-1.3-0.7-2c-0.1-0.7,0.2-1.4,0.6-1.9c0.6-0.6,1.4-1.1,2.2-1.3c0.7-0.2,1.4-0.3,2.2-0.3
	c1,0,1.9,0.2,2.9,0.5c0.3,0.1,0.5,0.4,0.6,0.7V31.8L110.1,31.8z"/>
<path d="M188.1,29.7"/>
<path d="M199.9,26.3c0-0.9-0.1-1.7-0.1-2.6c-0.5-3.6-2.6-5.6-6.2-6.2c-0.9-0.2-1.8-0.2-2.6-0.2c-1.8,0-3.5,0.3-5.2,0.7
	c-0.8,0.2-0.8,0.4-0.9,1.1V34c0,0.3,0.2,0.5,0.5,0.5h2.1c0.3,0,0.5-0.2,0.5-0.5V20.8c0-0.6,0.1-0.7,0.7-0.8c0.8-0.2,1.6-0.2,2.5-0.2
	c0.6,0,1.2,0,1.8,0.1c1.6,0.4,2.8,1.6,3.3,3.1c0.3,1,0.5,2.1,0.4,3.1V34c0,0.3,0.2,0.5,0.5,0.5h2.1c0.3,0,0.5-0.2,0.5-0.5
	L199.9,26.3L199.9,26.3z"/>
<path d="M45.2,31.9L34.3,13.1c-1-1.8-3.3-2.4-5.1-1.4c-0.6,0.3-1.1,0.8-1.4,1.4L16.9,31.9c-1,1.8-0.4,4.1,1.4,5.1
	c0.6,0.3,1.2,0.5,1.9,0.5h21.8c2.1,0,3.8-1.7,3.8-3.8C45.7,33.1,45.5,32.5,45.2,31.9z M38.9,34.4H23.1c-1.3,0-2.4-1-2.4-2.3
	c0-0.4,0.1-0.8,0.3-1.2L29,17.1c0.7-1.1,2.1-1.5,3.2-0.9c0.4,0.2,0.7,0.5,0.9,0.9L41,30.9c0.7,1.1,0.3,2.6-0.9,3.2
	C39.8,34.3,39.4,34.4,38.9,34.4z"/>
</svg>
